<svg width="87" height="87" viewBox="0 0 87 87" fill="none" xmlns="http://www.w3.org/2000/svg">
<g filter="url(#filter0_d)">
<path d="M43.5 82C64.763 82 82 64.763 82 43.5C82 22.237 64.763 5 43.5 5C22.237 5 5 22.237 5 43.5C5 64.763 22.237 82 43.5 82Z" fill="#B6D7EE"/>
</g>
<g filter="url(#filter1_d)">
<path d="M61.4801 60.873C63.8272 58.5775 65.6992 55.8422 66.9892 52.8232C68.2792 49.8042 68.962 46.5607 68.9985 43.2778C69.0349 39.995 68.4245 36.7371 67.2019 33.6902C65.9793 30.6433 64.1685 27.867 61.873 25.5199L44 43L61.4801 60.873Z" fill="#4093D5"/>
</g>
<g filter="url(#filter2_d)">
<path d="M26.2241 25.4211C23.9156 27.7555 22.0895 30.5217 20.8501 33.5617C19.6106 36.6018 18.9821 39.8563 19.0004 43.1393C19.0186 46.4223 19.6834 49.6695 20.9566 52.6956C22.2298 55.7217 24.0867 58.4674 26.421 60.7759L44 43.0001L26.2241 25.4211Z" fill="#4093D5"/>
</g>
<g filter="url(#filter3_d)">
<path d="M43.5 56C50.4036 56 56 50.4036 56 43.5C56 36.5964 50.4036 31 43.5 31C36.5964 31 31 36.5964 31 43.5C31 50.4036 36.5964 56 43.5 56Z" fill="#0E488A"/>
</g>
<defs>
<filter id="filter0_d" x="1" y="1" width="85" height="85" filterUnits="userSpaceOnUse" color-interpolation-filters="sRGB">
<feFlood flood-opacity="0" result="BackgroundImageFix"/>
<feColorMatrix in="SourceAlpha" type="matrix" values="0 0 0 0 0 0 0 0 0 0 0 0 0 0 0 0 0 0 127 0"/>
<feOffset/>
<feGaussianBlur stdDeviation="2"/>
<feColorMatrix type="matrix" values="0 0 0 0 0 0 0 0 0 0 0 0 0 0 0 0 0 0 0.25 0"/>
<feBlend mode="normal" in2="BackgroundImageFix" result="effect1_dropShadow"/>
<feBlend mode="normal" in="SourceGraphic" in2="effect1_dropShadow" result="shape"/>
</filter>
<filter id="filter1_d" x="40" y="21.5199" width="33" height="43.3531" filterUnits="userSpaceOnUse" color-interpolation-filters="sRGB">
<feFlood flood-opacity="0" result="BackgroundImageFix"/>
<feColorMatrix in="SourceAlpha" type="matrix" values="0 0 0 0 0 0 0 0 0 0 0 0 0 0 0 0 0 0 127 0"/>
<feOffset/>
<feGaussianBlur stdDeviation="2"/>
<feColorMatrix type="matrix" values="0 0 0 0 0 0 0 0 0 0 0 0 0 0 0 0 0 0 0.25 0"/>
<feBlend mode="normal" in2="BackgroundImageFix" result="effect1_dropShadow"/>
<feBlend mode="normal" in="SourceGraphic" in2="effect1_dropShadow" result="shape"/>
</filter>
<filter id="filter2_d" x="15" y="21.4211" width="33" height="43.3548" filterUnits="userSpaceOnUse" color-interpolation-filters="sRGB">
<feFlood flood-opacity="0" result="BackgroundImageFix"/>
<feColorMatrix in="SourceAlpha" type="matrix" values="0 0 0 0 0 0 0 0 0 0 0 0 0 0 0 0 0 0 127 0"/>
<feOffset/>
<feGaussianBlur stdDeviation="2"/>
<feColorMatrix type="matrix" values="0 0 0 0 0 0 0 0 0 0 0 0 0 0 0 0 0 0 0.25 0"/>
<feBlend mode="normal" in2="BackgroundImageFix" result="effect1_dropShadow"/>
<feBlend mode="normal" in="SourceGraphic" in2="effect1_dropShadow" result="shape"/>
</filter>
<filter id="filter3_d" x="27" y="27" width="33" height="33" filterUnits="userSpaceOnUse" color-interpolation-filters="sRGB">
<feFlood flood-opacity="0" result="BackgroundImageFix"/>
<feColorMatrix in="SourceAlpha" type="matrix" values="0 0 0 0 0 0 0 0 0 0 0 0 0 0 0 0 0 0 127 0"/>
<feOffset/>
<feGaussianBlur stdDeviation="2"/>
<feColorMatrix type="matrix" values="0 0 0 0 0 0 0 0 0 0 0 0 0 0 0 0 0 0 0.25 0"/>
<feBlend mode="normal" in2="BackgroundImageFix" result="effect1_dropShadow"/>
<feBlend mode="normal" in="SourceGraphic" in2="effect1_dropShadow" result="shape"/>
</filter>
</defs>
</svg>
